<svg id="visual" viewBox="0 0 900 600" width="900" height="600" xmlns="http://www.w3.org/2000/svg" xmlns:xlink="http://www.w3.org/1999/xlink" version="1.1"><rect x="0" y="0" width="900" height="600" fill="#fff"></rect><path d="M0 536L12.5 537.3C25 538.7 50 541.3 75 535.7C100 530 125 516 150 518.7C175 521.3 200 540.7 225 531.7C250 522.7 275 485.3 300 480.7C325 476 350 504 375 514.3C400 524.7 425 517.3 450 519.2C475 521 500 532 525 532.2C550 532.3 575 521.7 600 520.7C625 519.7 650 528.3 675 525.7C700 523 725 509 750 499C775 489 800 483 825 488.3C850 493.7 875 510.3 887.5 518.7L900 527L900 601L887.5 601C875 601 850 601 825 601C800 601 775 601 750 601C725 601 700 601 675 601C650 601 625 601 600 601C575 601 550 601 525 601C500 601 475 601 450 601C425 601 400 601 375 601C350 601 325 601 300 601C275 601 250 601 225 601C200 601 175 601 150 601C125 601 100 601 75 601C50 601 25 601 12.5 601L0 601Z" fill="#9f7aea" stroke-linecap="round" stroke-linejoin="miter"></path></svg>